<svg width="512" height="512" viewBox="0 0 512 512" fill="none" xmlns="http://www.w3.org/2000/svg">
<path d="M71.5664 274.536V231.362H88.0019C90.2405 231.329 92.4572 231.804 94.4829 232.751C96.4259 233.642 98.0632 235.08 99.1925 236.886C100.322 238.692 100.893 240.788 100.837 242.913C100.829 243.99 100.665 245.06 100.35 246.09C100.032 247.131 99.5302 248.107 98.8671 248.973C98.1937 249.824 97.3008 250.478 96.2832 250.866C97.5125 251.16 98.6393 251.778 99.5449 252.655C100.437 253.491 101.156 254.491 101.663 255.6C102.143 256.734 102.484 257.921 102.679 259.135C102.859 260.241 102.951 261.36 102.955 262.48C102.987 264.645 102.368 266.77 101.176 268.582C99.9741 270.357 98.3427 271.804 96.4315 272.79C94.3949 273.853 92.1238 274.395 89.8234 274.368L71.5664 274.536ZM79.4241 248.047H87.1124C88.5959 248.088 90.043 247.586 91.1789 246.637C91.7352 246.182 92.1778 245.605 92.4718 244.952C92.7657 244.298 92.9032 243.586 92.8733 242.871C92.9224 242.153 92.7936 241.435 92.4982 240.778C92.2028 240.122 91.7498 239.547 91.1789 239.105C90.005 238.239 88.5739 237.788 87.1124 237.821H79.4241V248.047ZM79.4241 268.056H88.955C90.1621 268.074 91.3523 267.772 92.4023 267.18C93.4523 266.588 94.3242 265.728 94.9277 264.69C95.5568 263.602 95.8788 262.367 95.8596 261.113C95.8541 259.962 95.5319 258.834 94.9277 257.852C94.305 256.84 93.4573 255.983 92.4497 255.348C91.3972 254.713 90.1862 254.385 88.955 254.401H79.4241V268.056Z" fill="#2C5E4A"/>
<path d="M124.325 274.536V231.362H152.643V238.873H132.183V247.626H148.407V255.137H132.183V266.962H152.643V274.536H124.325Z" fill="#2C5E4A"/>
<path d="M210.04 231.362V238.873H196.231V274.536H188.373V238.873H174.564V231.362H210.04Z" fill="#2C5E4A"/>
<path d="M259.177 231.362H267.056V274.536H259.177V255.179H240.475V274.536H232.617V231.362H240.475V247.626H259.177V231.362Z" fill="#2C5E4A"/>
<path d="M306.006 231.362H315.07L331.485 274.536H323.14L320.238 266.899H300.88L297.978 274.536H289.634L306.006 231.362ZM303.76 259.324H317.337L310.517 241.545L303.76 259.324Z" fill="#2C5E4A"/>
<path d="M353.067 274.536V231.362H361.539L380.601 260.818V231.362H388.458V274.536H379.986L360.925 245.08V274.536H353.067Z" fill="#2C5E4A"/>
<path d="M413.344 274.536V231.362H421.202V274.536H413.344Z" fill="#2C5E4A"/>
<path d="M446.025 274.536V231.362H474.427V238.873H453.989V247.626H470.191V255.137H453.967V266.962H474.427V274.536H446.025Z" fill="#2C5E4A"/>
<path d="M20.3325 263.406V246.153H24.4414V260.397H34.2265V263.406H20.3325Z" fill="#2C5E4A"/>
<path d="M45.367 246.153H50.0901L58.562 263.406H54.3049L52.7799 260.334H42.6983L41.1946 263.406H36.8315L45.367 246.153ZM44.2021 257.326H51.2762L47.7391 250.235L44.2021 257.326Z" fill="#2C5E4A"/>
</svg>
